<svg xmlns="http://www.w3.org/2000/svg" version="1.1" xmlns:xlink="http://www.w3.org/1999/xlink" xmlns:svgjs="http://svgjs.dev/svgjs" width="1000" height="252" viewBox="0 0 1000 252"><g transform="matrix(1,0,0,1,-0.6060510213507087,-0.3298221017792997)"><svg viewBox="0 0 396 100" data-background-color="#ffffff" preserveAspectRatio="xMidYMid meet" height="252" width="1000" xmlns="http://www.w3.org/2000/svg" xmlns:xlink="http://www.w3.org/1999/xlink"><g id="tight-bounds" transform="matrix(1,0,0,1,0.2399962044548829,0.13088425752235366)"><svg viewBox="0 0 395.52 99.73822118171636" height="99.73822118171636" width="395.52"><g><svg viewBox="0 0 600.0437889366399 151.31295545023696" height="99.73822118171636" width="395.52"><g transform="matrix(1,0,0,1,204.52378893663993,46.757899526066346)"><svg viewBox="0 0 395.52 57.79715639810426" height="57.79715639810426" width="395.52"><g><svg viewBox="0 0 395.52 57.79715639810426" height="57.79715639810426" width="395.52"><g><svg viewBox="0 0 395.52 57.79715639810426" height="57.79715639810426" width="395.52"><g transform="matrix(1,0,0,1,0,0)"><svg width="395.52" viewBox="1.2999999523162842 -36.5 253.17999267578125 37" height="57.79715639810426" data-palette-color="#8789fe"><path d="M1.3-25L1.3-36 32.1-36 32.1-25 29.1-25 27.5-32.5 19.7-32.5 19.7-3.85 25-2.65 25 0 8.4 0 8.4-2.65 13.7-3.85 13.7-32.5 5.85-32.5 4.3-25 1.3-25ZM57.8-25.1L57.8-11.9 54.25-11.9 53.4-16.75 46.05-16.75 46.05-3.5 60.25-3.5 61.7-11.15 65.6-11.15 65.6 0 35.35 0 35.35-2.65 40.05-3.7 40.05-32.3 35.35-33.35 35.35-36 64.5-36 64.5-25.4 60.9-25.4 59.4-32.6 46.05-32.6 46.05-20.25 53.4-20.25 54.25-25.1 57.8-25.1ZM90.1-2.65L94.2-3.7 91.5-11.85 78.9-11.85 76.15-3.7 80.3-2.65 80.3 0 67.6 0 67.6-2.65 71.7-3.7 83.5-36.5 89.15-36.5 100.85-3.7 104.85-2.65 104.85 0 90.1 0 90.1-2.65ZM85.5-30.6L85.3-30.6 80.05-15.25 90.4-15.25 85.5-30.6ZM128.54-5.05L128.74-5.05 138.14-36 150.84-36 150.84-33.35 146.64-32.3 146.64-3.7 150.84-2.65 150.84 0 136.99 0 136.99-2.65 140.64-3.7 140.64-32.25 131.14 0 124.44 0 115.04-32.25 115.04-3.7 118.69-2.65 118.69 0 106.59 0 106.59-2.65 110.79-3.7 110.79-32.3 106.59-33.35 106.59-36 119.49-36 128.54-5.05ZM195.94-27.35L195.94-27.35Q195.94-25.45 195.06-23.8 194.19-22.15 192.69-21.05 191.19-19.95 189.24-19.7L189.24-19.7 189.24-19.5Q193.14-18.7 195.39-16.2 197.64-13.7 197.64-10.05L197.64-10.05Q197.64-7.25 196.16-4.88 194.69-2.5 192.44-1.35L192.44-1.35Q191.04-0.65 188.99-0.33 186.94 0 183.24 0L183.24 0 167.29 0 167.29-2.65 171.49-3.7 171.49-32.3 167.29-33.35 167.29-36 185.09-36Q190.34-36 193.19-33.45L193.19-33.45Q194.49-32.25 195.21-30.65 195.94-29.05 195.94-27.35ZM182.89-17.1L182.89-17.1 177.49-17.1 177.49-3.5 181.99-3.5Q184.29-3.5 185.69-3.75 187.09-4 188.04-4.55L188.04-4.55Q189.39-5.3 190.24-6.85 191.09-8.4 191.09-10.45L191.09-10.45Q191.09-12.25 190.44-13.53 189.79-14.8 188.79-15.65L188.79-15.65Q187.89-16.35 186.49-16.73 185.09-17.1 182.89-17.1ZM182.94-32.6L177.49-32.6 177.49-20.5 182.74-20.5Q186.24-20.5 187.89-22.25L187.89-22.25Q188.64-22.95 189.19-24.1 189.74-25.25 189.74-26.7L189.74-26.7Q189.74-28.1 189.19-29.25 188.64-30.4 187.89-31.1L187.89-31.1Q186.39-32.6 182.94-32.6L182.94-32.6ZM216.84-33.35L212.14-32.3 212.14-3.7 216.84-2.65 216.84 0 201.44 0 201.44-2.65 206.14-3.7 206.14-32.3 201.44-33.35 201.44-36 216.84-36 216.84-33.35ZM254.48-18.4L254.48-18.4Q254.48-14.2 253.26-10.35 252.03-6.5 249.48-3.85L249.48-3.85Q247.38-1.65 244.43-0.58 241.48 0.5 237.43 0.5L237.43 0.5Q233.33 0.5 230.38-0.55 227.43-1.6 225.38-3.7L225.38-3.7Q223.18-6 221.88-9.63 220.58-13.25 220.58-17.6L220.58-17.6Q220.58-21.95 221.91-25.78 223.23-29.6 225.58-32.15L225.58-32.15Q227.68-34.4 230.58-35.45 233.48-36.5 237.53-36.5L237.53-36.5Q241.48-36.5 244.48-35.5 247.48-34.5 249.63-32.3L249.63-32.3Q252.18-29.75 253.33-26.1 254.48-22.45 254.48-18.4ZM227.33-18.55L227.33-18.55Q227.33-14.6 228.06-11.53 228.78-8.45 230.03-6.5L230.03-6.5Q231.28-4.65 233.13-3.7 234.98-2.75 237.68-2.75L237.68-2.75Q242.58-2.75 245.03-6.05L245.03-6.05Q246.33-7.85 247.03-10.78 247.73-13.7 247.73-17.7L247.73-17.7Q247.73-21.7 247.03-24.7 246.33-27.7 244.98-29.6L244.98-29.6Q243.68-31.5 241.76-32.4 239.83-33.3 237.38-33.3L237.38-33.3Q234.93-33.3 233.13-32.45 231.33-31.6 230.13-30L230.13-30Q227.33-26.3 227.33-18.55Z" opacity="1" transform="matrix(1,0,0,1,0,0)" fill="#8789fe" class="undefined-text-0" data-fill-palette-color="primary" id="text-0"></path></svg></g></svg></g></svg></g></svg></g><g><svg viewBox="0 0 190.87926744280108 151.31295545023696" height="151.31295545023696" width="190.87926744280108"><g><svg xmlns="http://www.w3.org/2000/svg" xmlns:xlink="http://www.w3.org/1999/xlink" version="1.1" x="0" y="0" viewBox="4.302999973297119 13.83700180053711 91.6760025024414 72.67298889160156" enable-background="new 0 0 100 100" xml:space="preserve" height="151.31295545023696" width="190.87926744280108" class="icon-icon-0" data-fill-palette-color="accent" id="icon-0"><path d="M61.58 47.513c4.583-3.373 7.559-8.945 7.559-15.072 0-10.235-8.297-18.604-18.532-18.604-10.235 0-18.532 8.262-18.532 18.497 0 6.127 2.976 11.824 7.559 15.197-10.485 4.252-17.868 14.979-17.868 26.979 0 16 57.683 16 57.683 0C79.448 62.511 72.064 51.765 61.58 47.513z" fill="#8789fe" data-fill-palette-color="accent"></path><path d="M82.841 47.976c3.37-2.479 5.557-6.518 5.557-11.023 0-7.525-6.1-13.648-13.625-13.648-1.69 0-3.307 0.31-4.8 0.871 1.068 2.522 1.66 5.293 1.66 8.201 0 5.364-2.051 10.508-5.621 14.375 9.789 5.473 15.931 15.89 15.931 27.504 0 0.458-0.037 0.942-0.121 1.442 7.795-0.98 14.157-3.643 14.157-7.99C95.979 58.355 90.55 51.103 82.841 47.976z" fill="#8789fe" data-fill-palette-color="accent"></path><path d="M19.27 74.256c0-11.401 5.927-21.646 15.413-27.193 0.145-0.133 0.286-0.271 0.425-0.409-3.512-3.863-5.529-8.984-5.529-14.335 0-2.76 0.541-5.395 1.514-7.812-1.705-0.77-3.594-1.202-5.585-1.202-7.525 0-13.625 6.089-13.625 13.614 0 4.506 2.188 8.584 5.557 11.063C9.732 51.109 4.303 58.355 4.303 67.708c0 4.522 6.885 7.222 15.106 8.1C19.312 75.269 19.27 74.749 19.27 74.256z" fill="#8789fe" data-fill-palette-color="accent"></path></svg></g></svg></g></svg></g><defs></defs></svg><rect width="395.52" height="99.73822118171636" fill="none" stroke="none" visibility="hidden"></rect></g></svg></g></svg>